<?xml version="1.0" encoding="UTF-8" standalone="no"?>
<!DOCTYPE svg PUBLIC "-//W3C//DTD SVG 1.1//EN"
 "http://www.w3.org/Graphics/SVG/1.1/DTD/svg11.dtd">
<!-- Generated by graphviz version 14.1.3 (20260303.0454)
 -->
<!-- Title: G Pages: 1 -->
<svg width="523pt" height="87pt"
 viewBox="0.00 0.00 523.00 87.00" xmlns="http://www.w3.org/2000/svg" xmlns:xlink="http://www.w3.org/1999/xlink">
<g id="graph0" class="graph" transform="scale(1 1) rotate(0) translate(21.6 65.35)">
<title>G</title>
<polygon fill="#111111" stroke="none" points="-21.6,21.6 -21.6,-65.35 501.85,-65.35 501.85,21.6 -21.6,21.6"/>
<!-- app.controller.ts -->
<g id="node1" class="node">
<title>app.controller.ts</title>
<path fill="none" stroke="#c6c5fe" d="M337.08,-43.75C337.08,-43.75 241.67,-43.75 241.67,-43.75 237.71,-43.75 233.75,-39.79 233.75,-35.83 233.75,-35.83 233.75,-27.92 233.75,-27.92 233.75,-23.96 237.71,-20 241.67,-20 241.67,-20 337.08,-20 337.08,-20 341.04,-20 345,-23.96 345,-27.92 345,-27.92 345,-35.83 345,-35.83 345,-39.79 341.04,-43.75 337.08,-43.75"/>
<text xml:space="preserve" text-anchor="middle" x="289.38" y="-26.45" font-family="Arial" font-size="14.00" fill="#c6c5fe">app.controller.ts</text>
</g>
<!-- app.service.ts -->
<g id="node2" class="node">
<title>app.service.ts</title>
<path fill="none" stroke="#cfffac" d="M472.33,-23.75C472.33,-23.75 388.92,-23.75 388.92,-23.75 384.96,-23.75 381,-19.79 381,-15.83 381,-15.83 381,-7.92 381,-7.92 381,-3.96 384.96,0 388.92,0 388.92,0 472.33,0 472.33,0 476.29,0 480.25,-3.96 480.25,-7.92 480.25,-7.92 480.25,-15.83 480.25,-15.83 480.25,-19.79 476.29,-23.75 472.33,-23.75"/>
<text xml:space="preserve" text-anchor="middle" x="430.62" y="-6.45" font-family="Arial" font-size="14.00" fill="#cfffac">app.service.ts</text>
</g>
<!-- app.controller.ts&#45;&gt;app.service.ts -->
<g id="edge1" class="edge">
<title>app.controller.ts&#45;&gt;app.service.ts</title>
<path fill="none" stroke="#757575" d="M345.41,-23.97C353.37,-22.83 361.59,-21.65 369.64,-20.49"/>
<polygon fill="#757575" stroke="#757575" points="369.96,-23.98 379.36,-19.09 368.96,-17.05 369.96,-23.98"/>
</g>
<!-- app.module.ts -->
<g id="node3" class="node">
<title>app.module.ts</title>
<path fill="none" stroke="#c6c5fe" d="M189.83,-23.75C189.83,-23.75 104.17,-23.75 104.17,-23.75 100.21,-23.75 96.25,-19.79 96.25,-15.83 96.25,-15.83 96.25,-7.92 96.25,-7.92 96.25,-3.96 100.21,0 104.17,0 104.17,0 189.83,0 189.83,0 193.79,0 197.75,-3.96 197.75,-7.92 197.75,-7.92 197.75,-15.83 197.75,-15.83 197.75,-19.79 193.79,-23.75 189.83,-23.75"/>
<text xml:space="preserve" text-anchor="middle" x="147" y="-6.45" font-family="Arial" font-size="14.00" fill="#c6c5fe">app.module.ts</text>
</g>
<!-- app.module.ts&#45;&gt;app.controller.ts -->
<g id="edge2" class="edge">
<title>app.module.ts&#45;&gt;app.controller.ts</title>
<path fill="none" stroke="#757575" d="M197.89,-18.98C205.71,-20.1 213.89,-21.26 222.01,-22.42"/>
<polygon fill="#757575" stroke="#757575" points="221.51,-25.88 231.9,-23.83 222.5,-18.95 221.51,-25.88"/>
</g>
<!-- app.module.ts&#45;&gt;app.service.ts -->
<g id="edge3" class="edge">
<title>app.module.ts&#45;&gt;app.service.ts</title>
<path fill="none" stroke="#757575" d="M197.88,-11.2C209.64,-11.06 222.14,-10.94 233.75,-10.88 283.19,-10.59 295.56,-10.58 345,-10.88 352.89,-10.92 361.19,-10.99 369.39,-11.08"/>
<polygon fill="#757575" stroke="#757575" points="369.3,-14.57 379.34,-11.18 369.37,-7.58 369.3,-14.57"/>
</g>
<!-- main.ts -->
<g id="node4" class="node">
<title>main.ts</title>
<path fill="none" stroke="#c6c5fe" d="M52.33,-23.75C52.33,-23.75 7.92,-23.75 7.92,-23.75 3.96,-23.75 0,-19.79 0,-15.83 0,-15.83 0,-7.92 0,-7.92 0,-3.96 3.96,0 7.92,0 7.92,0 52.33,0 52.33,0 56.29,0 60.25,-3.96 60.25,-7.92 60.25,-7.92 60.25,-15.83 60.25,-15.83 60.25,-19.79 56.29,-23.75 52.33,-23.75"/>
<text xml:space="preserve" text-anchor="middle" x="30.12" y="-6.45" font-family="Arial" font-size="14.00" fill="#c6c5fe">main.ts</text>
</g>
<!-- main.ts&#45;&gt;app.module.ts -->
<g id="edge4" class="edge">
<title>main.ts&#45;&gt;app.module.ts</title>
<path fill="none" stroke="#757575" d="M60.71,-11.88C68.11,-11.88 76.33,-11.88 84.66,-11.88"/>
<polygon fill="#757575" stroke="#757575" points="84.51,-15.38 94.51,-11.88 84.51,-8.38 84.51,-15.38"/>
</g>
</g>
</svg>
